# xmcd CD database file
#
# Track frame offsets:
#	150
#	12784
#	28643
#	44790
#	63971
#	81673
#	95670
#	114601
#	129558
#	147856
#	163696
#
# Disc length: 2441 seconds
#
# Revision: 0
# Processed by: cddbd v1.5.1PL0 Copyright (c) Steve Scherf et al.
# Submitted via: CDex 1.40Beta8
#
DISCID=9a09870b
DTITLE=Van Zant - Get Right With The Man
DYEAR=2005
DGENRE=Country
TTITLE0=Takin' Up Space
TTITLE1=Nobody Gonna Tell Me What To Do
TTITLE2=Sweet Mama
TTITLE3=Help Somebody
TTITLE4=Things I Miss The Most
TTITLE5=I Know My History
TTITLE6=I Can't Help Myself
TTITLE7=I'm Doin' Alright
TTITLE8=Lovin' You
TTITLE9=Plain Jane
TTITLE10=Been There Done That
EXTD=YEAR: 2005 ID3G: 2
EXTT0=
EXTT1=
EXTT2=
EXTT3=
EXTT4=
EXTT5=
EXTT6=
EXTT7=
EXTT8=
EXTT9=
EXTT10=
PLAYORDER=
